<svg width="85" height="81" viewBox="0 0 85 81" fill="none" xmlns="http://www.w3.org/2000/svg">
<foreignObject x="-8.39999" y="-8" width="92.8" height="88.8"><div xmlns="http://www.w3.org/1999/xhtml" style="backdrop-filter:blur(10px);clip-path:url(#bgblur_1_1_1008_clip_path);height:100%;width:100%"></div></foreignObject><g filter="url(#filter0_di_1_1008)" data-figma-bg-blur-radius="20">
<g clip-path="url(#clip0_1_1008)">
<rect x="12" y="12.4" width="48" height="48" rx="12" fill="url(#paint0_linear_1_1008)" fill-opacity="0.04" shape-rendering="crispEdges"/>
<g style="mix-blend-mode:plus-lighter" opacity="0.5" filter="url(#filter1_f_1_1008)">
<path d="M36 22.4C28.265 22.4 22 28.665 22 36.4C22 42.595 26.0075 47.8275 31.5725 49.6825C32.2725 49.805 32.535 49.385 32.535 49.0175C32.535 48.685 32.5175 47.5825 32.5175 46.41C29 47.0575 28.09 45.5525 27.81 44.765C27.6525 44.3625 26.97 43.12 26.375 42.7875C25.885 42.525 25.185 41.8775 26.3575 41.86C27.46 41.8425 28.2475 42.875 28.51 43.295C29.77 45.4125 31.7825 44.8175 32.5875 44.45C32.71 43.54 33.0775 42.9275 33.48 42.5775C30.365 42.2275 27.11 41.02 27.11 35.665C27.11 34.1425 27.6525 32.8825 28.545 31.9025C28.405 31.5525 27.915 30.1175 28.685 28.1925C28.685 28.1925 29.8575 27.825 32.535 29.6275C33.655 29.3125 34.845 29.155 36.035 29.155C37.225 29.155 38.415 29.3125 39.535 29.6275C42.2125 27.8075 43.385 28.1925 43.385 28.1925C44.155 30.1175 43.665 31.5525 43.525 31.9025C44.4175 32.8825 44.96 34.125 44.96 35.665C44.96 41.0375 41.6875 42.2275 38.5725 42.5775C39.08 43.015 39.5175 43.855 39.5175 45.1675C39.5175 47.04 39.5 48.545 39.5 49.0175C39.5 49.385 39.7625 49.8225 40.4625 49.6825C43.2418 48.7442 45.6568 46.9581 47.3677 44.5753C49.0786 42.1926 49.9993 39.3333 50 36.4C50 28.665 43.735 22.4 36 22.4Z" fill="white"/>
</g>
<path d="M36 22.4C28.265 22.4 22 28.665 22 36.4C22 42.595 26.0075 47.8275 31.5725 49.6825C32.2725 49.805 32.535 49.385 32.535 49.0175C32.535 48.685 32.5175 47.5825 32.5175 46.41C29 47.0575 28.09 45.5525 27.81 44.765C27.6525 44.3625 26.97 43.12 26.375 42.7875C25.885 42.525 25.185 41.8775 26.3575 41.86C27.46 41.8425 28.2475 42.875 28.51 43.295C29.77 45.4125 31.7825 44.8175 32.5875 44.45C32.71 43.54 33.0775 42.9275 33.48 42.5775C30.365 42.2275 27.11 41.02 27.11 35.665C27.11 34.1425 27.6525 32.8825 28.545 31.9025C28.405 31.5525 27.915 30.1175 28.685 28.1925C28.685 28.1925 29.8575 27.825 32.535 29.6275C33.655 29.3125 34.845 29.155 36.035 29.155C37.225 29.155 38.415 29.3125 39.535 29.6275C42.2125 27.8075 43.385 28.1925 43.385 28.1925C44.155 30.1175 43.665 31.5525 43.525 31.9025C44.4175 32.8825 44.96 34.125 44.96 35.665C44.96 41.0375 41.6875 42.2275 38.5725 42.5775C39.08 43.015 39.5175 43.855 39.5175 45.1675C39.5175 47.04 39.5 48.545 39.5 49.0175C39.5 49.385 39.7625 49.8225 40.4625 49.6825C43.2418 48.7442 45.6568 46.9581 47.3677 44.5753C49.0786 42.1926 49.9993 39.3333 50 36.4C50 28.665 43.735 22.4 36 22.4Z" fill="white"/>
<g filter="url(#filter2_f_1_1008)">
<ellipse cx="36.5" cy="59.9" rx="11.5" ry="6.5" fill="white"/>
</g>
</g>
<rect x="12" y="12.4" width="48" height="48" rx="12" stroke="url(#paint1_linear_1_1008)" stroke-opacity="0.5" stroke-width="0.8" shape-rendering="crispEdges"/>
</g>
<g filter="url(#filter3_f_1_1008)" style="mix-blend-mode:screen">
<circle cx="29" cy="29.4" r="9" fill="white" fill-opacity="0.18"/>
</g>
<defs>
<filter id="filter0_di_1_1008" x="-8.39999" y="-8" width="92.8" height="88.8" filterUnits="userSpaceOnUse" color-interpolation-filters="sRGB">
<feFlood flood-opacity="0" result="BackgroundImageFix"/>
<feColorMatrix in="SourceAlpha" type="matrix" values="0 0 0 0 0 0 0 0 0 0 0 0 0 0 0 0 0 0 127 0" result="hardAlpha"/>
<feOffset dx="8" dy="4"/>
<feGaussianBlur stdDeviation="8"/>
<feComposite in2="hardAlpha" operator="out"/>
<feColorMatrix type="matrix" values="0 0 0 0 0 0 0 0 0 0 0 0 0 0 0 0 0 0 0.08 0"/>
<feBlend mode="normal" in2="BackgroundImageFix" result="effect1_dropShadow_1_1008"/>
<feBlend mode="normal" in="SourceGraphic" in2="effect1_dropShadow_1_1008" result="shape"/>
<feColorMatrix in="SourceAlpha" type="matrix" values="0 0 0 0 0 0 0 0 0 0 0 0 0 0 0 0 0 0 127 0" result="hardAlpha"/>
<feOffset/>
<feGaussianBlur stdDeviation="4"/>
<feComposite in2="hardAlpha" operator="arithmetic" k2="-1" k3="1"/>
<feColorMatrix type="matrix" values="0 0 0 0 0.826389 0 0 0 0 0.942083 0 0 0 0 0.991667 0 0 0 0.32 0"/>
<feBlend mode="normal" in2="shape" result="effect2_innerShadow_1_1008"/>
</filter>
<clipPath id="bgblur_1_1_1008_clip_path" transform="translate(8.39999 8)"><rect x="12" y="12.4" width="48" height="48" rx="12"/>
</clipPath><filter id="filter1_f_1_1008" x="8" y="8.39999" width="56" height="56" filterUnits="userSpaceOnUse" color-interpolation-filters="sRGB">
<feFlood flood-opacity="0" result="BackgroundImageFix"/>
<feBlend mode="normal" in="SourceGraphic" in2="BackgroundImageFix" result="shape"/>
<feGaussianBlur stdDeviation="6" result="effect1_foregroundBlur_1_1008"/>
</filter>
<filter id="filter2_f_1_1008" x="7" y="35.4" width="59" height="49" filterUnits="userSpaceOnUse" color-interpolation-filters="sRGB">
<feFlood flood-opacity="0" result="BackgroundImageFix"/>
<feBlend mode="normal" in="SourceGraphic" in2="BackgroundImageFix" result="shape"/>
<feGaussianBlur stdDeviation="9" result="effect1_foregroundBlur_1_1008"/>
</filter>
<filter id="filter3_f_1_1008" x="0" y="0.399994" width="58" height="58" filterUnits="userSpaceOnUse" color-interpolation-filters="sRGB">
<feFlood flood-opacity="0" result="BackgroundImageFix"/>
<feBlend mode="normal" in="SourceGraphic" in2="BackgroundImageFix" result="shape"/>
<feGaussianBlur stdDeviation="10" result="effect1_foregroundBlur_1_1008"/>
</filter>
<linearGradient id="paint0_linear_1_1008" x1="12" y1="12.4" x2="60" y2="60.4" gradientUnits="userSpaceOnUse">
<stop stop-color="#F8FBFF"/>
<stop offset="1" stop-color="white" stop-opacity="0"/>
</linearGradient>
<linearGradient id="paint1_linear_1_1008" x1="13" y1="11.4" x2="58.5" y2="60.4" gradientUnits="userSpaceOnUse">
<stop stop-color="#D8D8D8" stop-opacity="0.05"/>
<stop offset="1" stop-color="white" stop-opacity="0.4"/>
</linearGradient>
<clipPath id="clip0_1_1008">
<rect x="12" y="12.4" width="48" height="48" rx="12" fill="white"/>
</clipPath>
</defs>
</svg>
