<svg width="85" height="81" viewBox="0 0 85 81" fill="none" xmlns="http://www.w3.org/2000/svg">
<foreignObject x="-8.40002" y="-8" width="92.8" height="88.8"><div xmlns="http://www.w3.org/1999/xhtml" style="backdrop-filter:blur(10px);clip-path:url(#bgblur_1_1_189_clip_path);height:100%;width:100%"></div></foreignObject><g filter="url(#filter0_di_1_189)" data-figma-bg-blur-radius="20">
<g clip-path="url(#clip0_1_189)">
<rect x="12" y="12.4" width="48" height="48" rx="12" fill="url(#paint0_linear_1_189)" fill-opacity="0.04" shape-rendering="crispEdges"/>
<g style="mix-blend-mode:plus-lighter" opacity="0.5" filter="url(#filter1_f_1_189)">
<rect x="22" y="22.4" width="28" height="28" rx="14" fill="#1275B1"/>
<path d="M32.6186 30.0921C32.6186 31.0267 31.8085 31.7843 30.8093 31.7843C29.81 31.7843 29 31.0267 29 30.0921C29 29.1576 29.81 28.4 30.8093 28.4C31.8085 28.4 32.6186 29.1576 32.6186 30.0921Z" fill="white"/>
<path d="M29.2474 33.0281H32.3402V42.4H29.2474V33.0281Z" fill="white"/>
<path d="M37.3196 33.0281H34.2268V42.4H37.3196C37.3196 42.4 37.3196 39.4496 37.3196 37.6049C37.3196 36.4976 37.6977 35.3855 39.2062 35.3855C40.911 35.3855 40.9008 36.8345 40.8928 37.9571C40.8824 39.4244 40.9072 40.9218 40.9072 42.4H44V37.4537C43.9738 34.2954 43.1508 32.8401 40.4433 32.8401C38.8354 32.8401 37.8387 33.5701 37.3196 34.2305V33.0281Z" fill="white"/>
</g>
<rect x="22" y="22.4" width="28" height="28" rx="14" fill="#1275B1"/>
<path d="M32.6186 30.0921C32.6186 31.0267 31.8085 31.7843 30.8093 31.7843C29.81 31.7843 29 31.0267 29 30.0921C29 29.1576 29.81 28.4 30.8093 28.4C31.8085 28.4 32.6186 29.1576 32.6186 30.0921Z" fill="white"/>
<path d="M29.2474 33.0281H32.3402V42.4H29.2474V33.0281Z" fill="white"/>
<path d="M37.3196 33.0281H34.2268V42.4H37.3196C37.3196 42.4 37.3196 39.4496 37.3196 37.6049C37.3196 36.4976 37.6977 35.3855 39.2062 35.3855C40.911 35.3855 40.9008 36.8345 40.8928 37.9571C40.8824 39.4244 40.9072 40.9218 40.9072 42.4H44V37.4537C43.9738 34.2954 43.1508 32.8401 40.4433 32.8401C38.8354 32.8401 37.8387 33.5701 37.3196 34.2305V33.0281Z" fill="white"/>
<g filter="url(#filter2_f_1_189)">
<ellipse cx="36.5" cy="59.9" rx="11.5" ry="6.5" fill="#1A75B0"/>
</g>
</g>
<rect x="12" y="12.4" width="48" height="48" rx="12" stroke="url(#paint1_linear_1_189)" stroke-opacity="0.5" stroke-width="0.8" shape-rendering="crispEdges"/>
</g>
<g filter="url(#filter3_f_1_189)" style="mix-blend-mode:screen">
<circle cx="29" cy="29.4" r="9" fill="white" fill-opacity="0.18"/>
</g>
<defs>
<filter id="filter0_di_1_189" x="-8.40002" y="-8" width="92.8" height="88.8" filterUnits="userSpaceOnUse" color-interpolation-filters="sRGB">
<feFlood flood-opacity="0" result="BackgroundImageFix"/>
<feColorMatrix in="SourceAlpha" type="matrix" values="0 0 0 0 0 0 0 0 0 0 0 0 0 0 0 0 0 0 127 0" result="hardAlpha"/>
<feOffset dx="8" dy="4"/>
<feGaussianBlur stdDeviation="8"/>
<feComposite in2="hardAlpha" operator="out"/>
<feColorMatrix type="matrix" values="0 0 0 0 0 0 0 0 0 0 0 0 0 0 0 0 0 0 0.08 0"/>
<feBlend mode="normal" in2="BackgroundImageFix" result="effect1_dropShadow_1_189"/>
<feBlend mode="normal" in="SourceGraphic" in2="effect1_dropShadow_1_189" result="shape"/>
<feColorMatrix in="SourceAlpha" type="matrix" values="0 0 0 0 0 0 0 0 0 0 0 0 0 0 0 0 0 0 127 0" result="hardAlpha"/>
<feOffset/>
<feGaussianBlur stdDeviation="4"/>
<feComposite in2="hardAlpha" operator="arithmetic" k2="-1" k3="1"/>
<feColorMatrix type="matrix" values="0 0 0 0 0.0509804 0 0 0 0 0.538353 0 0 0 0 0.988235 0 0 0 0.32 0"/>
<feBlend mode="normal" in2="shape" result="effect2_innerShadow_1_189"/>
</filter>
<clipPath id="bgblur_1_1_189_clip_path" transform="translate(8.40002 8)"><rect x="12" y="12.4" width="48" height="48" rx="12"/>
</clipPath><filter id="filter1_f_1_189" x="8" y="8.39999" width="56" height="56" filterUnits="userSpaceOnUse" color-interpolation-filters="sRGB">
<feFlood flood-opacity="0" result="BackgroundImageFix"/>
<feBlend mode="normal" in="SourceGraphic" in2="BackgroundImageFix" result="shape"/>
<feGaussianBlur stdDeviation="6" result="effect1_foregroundBlur_1_189"/>
</filter>
<filter id="filter2_f_1_189" x="7" y="35.4" width="59" height="49" filterUnits="userSpaceOnUse" color-interpolation-filters="sRGB">
<feFlood flood-opacity="0" result="BackgroundImageFix"/>
<feBlend mode="normal" in="SourceGraphic" in2="BackgroundImageFix" result="shape"/>
<feGaussianBlur stdDeviation="9" result="effect1_foregroundBlur_1_189"/>
</filter>
<filter id="filter3_f_1_189" x="0" y="0.399994" width="58" height="58" filterUnits="userSpaceOnUse" color-interpolation-filters="sRGB">
<feFlood flood-opacity="0" result="BackgroundImageFix"/>
<feBlend mode="normal" in="SourceGraphic" in2="BackgroundImageFix" result="shape"/>
<feGaussianBlur stdDeviation="10" result="effect1_foregroundBlur_1_189"/>
</filter>
<linearGradient id="paint0_linear_1_189" x1="12" y1="12.4" x2="60" y2="60.4" gradientUnits="userSpaceOnUse">
<stop stop-color="#F8FBFF"/>
<stop offset="1" stop-color="white" stop-opacity="0"/>
</linearGradient>
<linearGradient id="paint1_linear_1_189" x1="13" y1="11.4" x2="58.5" y2="60.4" gradientUnits="userSpaceOnUse">
<stop stop-color="#D8D8D8" stop-opacity="0.05"/>
<stop offset="1" stop-color="white" stop-opacity="0.4"/>
</linearGradient>
<clipPath id="clip0_1_189">
<rect x="12" y="12.4" width="48" height="48" rx="12" fill="white"/>
</clipPath>
</defs>
</svg>
