<svg width="85" height="81" viewBox="0 0 85 81" fill="none" xmlns="http://www.w3.org/2000/svg">
<foreignObject x="-8.40002" y="-8" width="92.8" height="88.8"><div xmlns="http://www.w3.org/1999/xhtml" style="backdrop-filter:blur(10px);clip-path:url(#bgblur_1_1_972_clip_path);height:100%;width:100%"></div></foreignObject><g filter="url(#filter0_di_1_972)" data-figma-bg-blur-radius="20">
<g clip-path="url(#clip0_1_972)">
<rect x="12" y="12.4" width="48" height="48" rx="12" fill="url(#paint0_linear_1_972)" fill-opacity="0.04" shape-rendering="crispEdges"/>
<g style="mix-blend-mode:plus-lighter" opacity="0.5" filter="url(#filter1_f_1_972)">
<path fill-rule="evenodd" clip-rule="evenodd" d="M36 48.5791C43.1797 48.5791 49 42.9426 49 35.9896C49 29.0365 43.1797 23.4 36 23.4C28.8203 23.4 23 29.0365 23 35.9896C23 39.7712 24.7217 43.1634 27.4474 45.4711V48.0188C27.4474 49.0145 28.4616 49.6823 29.3659 49.2821L32.193 48.0307C33.397 48.3873 34.6754 48.5791 36 48.5791Z" fill="url(#paint1_linear_1_972)"/>
<path d="M32.887 33.3133L29.1172 38.4689C28.713 39.0217 29.4399 39.6858 29.9933 39.2693L33.2123 36.8469C33.5399 36.6003 33.9992 36.597 34.3307 36.8388L37.1935 38.9272C37.7425 39.3277 38.5272 39.2125 38.9269 38.6727L42.8805 33.3341C43.2905 32.7804 42.558 32.1109 42.0038 32.5328L38.6006 35.1236C38.2729 35.3731 37.8112 35.3777 37.4782 35.1347L34.6247 33.0531C34.0733 32.6509 33.285 32.769 32.887 33.3133Z" fill="white"/>
</g>
<path fill-rule="evenodd" clip-rule="evenodd" d="M36 48.5791C43.1797 48.5791 49 42.9426 49 35.9896C49 29.0365 43.1797 23.4 36 23.4C28.8203 23.4 23 29.0365 23 35.9896C23 39.7712 24.7217 43.1634 27.4474 45.4711V48.0188C27.4474 49.0145 28.4616 49.6823 29.3659 49.2821L32.193 48.0307C33.397 48.3873 34.6754 48.5791 36 48.5791Z" fill="url(#paint2_linear_1_972)"/>
<path d="M32.887 33.3133L29.1172 38.4689C28.713 39.0217 29.4399 39.6858 29.9933 39.2693L33.2123 36.8469C33.5399 36.6003 33.9992 36.597 34.3307 36.8388L37.1935 38.9272C37.7425 39.3277 38.5272 39.2125 38.9269 38.6727L42.8805 33.3341C43.2905 32.7804 42.558 32.1109 42.0038 32.5328L38.6006 35.1236C38.2729 35.3731 37.8112 35.3777 37.4782 35.1347L34.6247 33.0531C34.0733 32.6509 33.285 32.769 32.887 33.3133Z" fill="white"/>
<g filter="url(#filter2_f_1_972)">
<ellipse cx="36.5" cy="59.9" rx="11.5" ry="6.5" fill="#0984FF"/>
</g>
</g>
<rect x="12" y="12.4" width="48" height="48" rx="12" stroke="url(#paint3_linear_1_972)" stroke-opacity="0.5" stroke-width="0.8" shape-rendering="crispEdges"/>
</g>
<g filter="url(#filter3_f_1_972)" style="mix-blend-mode:screen">
<circle cx="29" cy="29.4" r="9" fill="white" fill-opacity="0.18"/>
</g>
<defs>
<filter id="filter0_di_1_972" x="-8.40002" y="-8" width="92.8" height="88.8" filterUnits="userSpaceOnUse" color-interpolation-filters="sRGB">
<feFlood flood-opacity="0" result="BackgroundImageFix"/>
<feColorMatrix in="SourceAlpha" type="matrix" values="0 0 0 0 0 0 0 0 0 0 0 0 0 0 0 0 0 0 127 0" result="hardAlpha"/>
<feOffset dx="8" dy="4"/>
<feGaussianBlur stdDeviation="8"/>
<feComposite in2="hardAlpha" operator="out"/>
<feColorMatrix type="matrix" values="0 0 0 0 0 0 0 0 0 0 0 0 0 0 0 0 0 0 0.08 0"/>
<feBlend mode="normal" in2="BackgroundImageFix" result="effect1_dropShadow_1_972"/>
<feBlend mode="normal" in="SourceGraphic" in2="effect1_dropShadow_1_972" result="shape"/>
<feColorMatrix in="SourceAlpha" type="matrix" values="0 0 0 0 0 0 0 0 0 0 0 0 0 0 0 0 0 0 127 0" result="hardAlpha"/>
<feOffset/>
<feGaussianBlur stdDeviation="4"/>
<feComposite in2="hardAlpha" operator="arithmetic" k2="-1" k3="1"/>
<feColorMatrix type="matrix" values="0 0 0 0 0.0509804 0 0 0 0 0.650824 0 0 0 0 0.988235 0 0 0 0.32 0"/>
<feBlend mode="normal" in2="shape" result="effect2_innerShadow_1_972"/>
</filter>
<clipPath id="bgblur_1_1_972_clip_path" transform="translate(8.40002 8)"><rect x="12" y="12.4" width="48" height="48" rx="12"/>
</clipPath><filter id="filter1_f_1_972" x="8" y="8.39999" width="56" height="56" filterUnits="userSpaceOnUse" color-interpolation-filters="sRGB">
<feFlood flood-opacity="0" result="BackgroundImageFix"/>
<feBlend mode="normal" in="SourceGraphic" in2="BackgroundImageFix" result="shape"/>
<feGaussianBlur stdDeviation="6" result="effect1_foregroundBlur_1_972"/>
</filter>
<filter id="filter2_f_1_972" x="7" y="35.4" width="59" height="49" filterUnits="userSpaceOnUse" color-interpolation-filters="sRGB">
<feFlood flood-opacity="0" result="BackgroundImageFix"/>
<feBlend mode="normal" in="SourceGraphic" in2="BackgroundImageFix" result="shape"/>
<feGaussianBlur stdDeviation="9" result="effect1_foregroundBlur_1_972"/>
</filter>
<filter id="filter3_f_1_972" x="0" y="0.399994" width="58" height="58" filterUnits="userSpaceOnUse" color-interpolation-filters="sRGB">
<feFlood flood-opacity="0" result="BackgroundImageFix"/>
<feBlend mode="normal" in="SourceGraphic" in2="BackgroundImageFix" result="shape"/>
<feGaussianBlur stdDeviation="10" result="effect1_foregroundBlur_1_972"/>
</filter>
<linearGradient id="paint0_linear_1_972" x1="12" y1="12.4" x2="60" y2="60.4" gradientUnits="userSpaceOnUse">
<stop stop-color="#F8FBFF"/>
<stop offset="1" stop-color="white" stop-opacity="0"/>
</linearGradient>
<linearGradient id="paint1_linear_1_972" x1="36" y1="23.4" x2="31.8286" y2="49.2583" gradientUnits="userSpaceOnUse">
<stop stop-color="#00B1FF"/>
<stop offset="1" stop-color="#006BFF"/>
</linearGradient>
<linearGradient id="paint2_linear_1_972" x1="36" y1="23.4" x2="31.8286" y2="49.2583" gradientUnits="userSpaceOnUse">
<stop stop-color="#00B1FF"/>
<stop offset="1" stop-color="#006BFF"/>
</linearGradient>
<linearGradient id="paint3_linear_1_972" x1="13" y1="11.4" x2="58.5" y2="60.4" gradientUnits="userSpaceOnUse">
<stop stop-color="#D8D8D8" stop-opacity="0.05"/>
<stop offset="1" stop-color="white" stop-opacity="0.4"/>
</linearGradient>
<clipPath id="clip0_1_972">
<rect x="12" y="12.4" width="48" height="48" rx="12" fill="white"/>
</clipPath>
</defs>
</svg>
