<svg width="85" height="81" viewBox="0 0 85 81" fill="none" xmlns="http://www.w3.org/2000/svg">
<foreignObject x="-8.39999" y="-8" width="92.8" height="88.8"><div xmlns="http://www.w3.org/1999/xhtml" style="backdrop-filter:blur(10px);clip-path:url(#bgblur_1_1_575_clip_path);height:100%;width:100%"></div></foreignObject><g filter="url(#filter0_di_1_575)" data-figma-bg-blur-radius="20">
<g clip-path="url(#clip0_1_575)">
<rect x="12" y="12.4" width="48" height="48" rx="12" fill="url(#paint0_linear_1_575)" fill-opacity="0.04" shape-rendering="crispEdges"/>
<g style="mix-blend-mode:plus-lighter" opacity="0.5" filter="url(#filter1_f_1_575)">
<path d="M42.9866 30.6088C43.1112 29.8033 42.3454 29.1675 41.6292 29.482L27.3648 35.7448C26.8512 35.9703 26.8888 36.7483 27.4215 36.9179L30.3631 37.8547C30.9246 38.0335 31.5325 37.941 32.0228 37.6023L38.655 33.0203C38.855 32.8821 39.073 33.1665 38.9021 33.3426L34.1281 38.2646C33.665 38.7421 33.7569 39.5512 34.314 39.9005L39.659 43.2523C40.2585 43.6282 41.0297 43.2506 41.1418 42.5261L42.9866 30.6088Z" fill="white"/>
</g>
<circle cx="36" cy="36.4" r="14" fill="url(#paint1_linear_1_575)"/>
<path d="M42.9866 30.6088C43.1112 29.8033 42.3454 29.1675 41.6292 29.482L27.3648 35.7448C26.8512 35.9703 26.8888 36.7483 27.4215 36.9179L30.3631 37.8547C30.9246 38.0335 31.5325 37.941 32.0228 37.6023L38.655 33.0203C38.855 32.8821 39.073 33.1665 38.9021 33.3426L34.1281 38.2646C33.665 38.7421 33.7569 39.5512 34.314 39.9005L39.659 43.2523C40.2585 43.6282 41.0297 43.2506 41.1418 42.5261L42.9866 30.6088Z" fill="white"/>
<g filter="url(#filter2_f_1_575)">
<ellipse cx="36.5" cy="59.9" rx="11.5" ry="6.5" fill="#1893D1"/>
</g>
</g>
<rect x="12" y="12.4" width="48" height="48" rx="12" stroke="url(#paint2_linear_1_575)" stroke-opacity="0.5" stroke-width="0.8" shape-rendering="crispEdges"/>
</g>
<g filter="url(#filter3_f_1_575)" style="mix-blend-mode:screen">
<circle cx="29" cy="29.4" r="9" fill="white" fill-opacity="0.18"/>
</g>
<defs>
<filter id="filter0_di_1_575" x="-8.39999" y="-8" width="92.8" height="88.8" filterUnits="userSpaceOnUse" color-interpolation-filters="sRGB">
<feFlood flood-opacity="0" result="BackgroundImageFix"/>
<feColorMatrix in="SourceAlpha" type="matrix" values="0 0 0 0 0 0 0 0 0 0 0 0 0 0 0 0 0 0 127 0" result="hardAlpha"/>
<feOffset dx="8" dy="4"/>
<feGaussianBlur stdDeviation="8"/>
<feComposite in2="hardAlpha" operator="out"/>
<feColorMatrix type="matrix" values="0 0 0 0 0 0 0 0 0 0 0 0 0 0 0 0 0 0 0.08 0"/>
<feBlend mode="normal" in2="BackgroundImageFix" result="effect1_dropShadow_1_575"/>
<feBlend mode="normal" in="SourceGraphic" in2="effect1_dropShadow_1_575" result="shape"/>
<feColorMatrix in="SourceAlpha" type="matrix" values="0 0 0 0 0 0 0 0 0 0 0 0 0 0 0 0 0 0 127 0" result="hardAlpha"/>
<feOffset/>
<feGaussianBlur stdDeviation="4"/>
<feComposite in2="hardAlpha" operator="arithmetic" k2="-1" k3="1"/>
<feColorMatrix type="matrix" values="0 0 0 0 0.0509804 0 0 0 0 0.707059 0 0 0 0 0.988235 0 0 0 0.32 0"/>
<feBlend mode="normal" in2="shape" result="effect2_innerShadow_1_575"/>
</filter>
<clipPath id="bgblur_1_1_575_clip_path" transform="translate(8.39999 8)"><rect x="12" y="12.4" width="48" height="48" rx="12"/>
</clipPath><filter id="filter1_f_1_575" x="8" y="8.39999" width="56" height="56" filterUnits="userSpaceOnUse" color-interpolation-filters="sRGB">
<feFlood flood-opacity="0" result="BackgroundImageFix"/>
<feBlend mode="normal" in="SourceGraphic" in2="BackgroundImageFix" result="shape"/>
<feGaussianBlur stdDeviation="6" result="effect1_foregroundBlur_1_575"/>
</filter>
<filter id="filter2_f_1_575" x="7" y="35.4" width="59" height="49" filterUnits="userSpaceOnUse" color-interpolation-filters="sRGB">
<feFlood flood-opacity="0" result="BackgroundImageFix"/>
<feBlend mode="normal" in="SourceGraphic" in2="BackgroundImageFix" result="shape"/>
<feGaussianBlur stdDeviation="9" result="effect1_foregroundBlur_1_575"/>
</filter>
<filter id="filter3_f_1_575" x="0" y="0.399994" width="58" height="58" filterUnits="userSpaceOnUse" color-interpolation-filters="sRGB">
<feFlood flood-opacity="0" result="BackgroundImageFix"/>
<feBlend mode="normal" in="SourceGraphic" in2="BackgroundImageFix" result="shape"/>
<feGaussianBlur stdDeviation="10" result="effect1_foregroundBlur_1_575"/>
</filter>
<linearGradient id="paint0_linear_1_575" x1="12" y1="12.4" x2="60" y2="60.4" gradientUnits="userSpaceOnUse">
<stop stop-color="#F8FBFF"/>
<stop offset="1" stop-color="white" stop-opacity="0"/>
</linearGradient>
<linearGradient id="paint1_linear_1_575" x1="36" y1="22.4" x2="36" y2="50.4" gradientUnits="userSpaceOnUse">
<stop stop-color="#37BBFE"/>
<stop offset="1" stop-color="#007DBB"/>
</linearGradient>
<linearGradient id="paint2_linear_1_575" x1="13" y1="11.4" x2="58.5" y2="60.4" gradientUnits="userSpaceOnUse">
<stop stop-color="#D8D8D8" stop-opacity="0.05"/>
<stop offset="1" stop-color="white" stop-opacity="0.4"/>
</linearGradient>
<clipPath id="clip0_1_575">
<rect x="12" y="12.4" width="48" height="48" rx="12" fill="white"/>
</clipPath>
</defs>
</svg>
